<mxfile host="65bd71144e">
    <diagram name="Casos de uso - Agente RL anti-DDoS" id="bIPF_y2FzqYmtMcbWBfF">
        <mxGraphModel dx="603" dy="450" grid="1" gridSize="10" guides="1" tooltips="1" connect="1" arrows="1" fold="1" page="1" pageScale="1" pageWidth="827" pageHeight="1169" math="0" shadow="0">
            <root>
                <mxCell id="0"/>
                <mxCell id="1" parent="0"/>
                <mxCell id="2" value="Usuario" style="shape=umlActor;verticalLabelPosition=top;verticalAlign=bottom;labelPosition=right;align=left;" parent="1" vertex="1">
                    <mxGeometry x="80" y="160" width="30" height="60" as="geometry"/>
                </mxCell>
                <mxCell id="3" value="Administrador" style="shape=umlActor;verticalLabelPosition=top;verticalAlign=bottom;labelPosition=right;align=left;" parent="1" vertex="1">
                    <mxGeometry x="80" y="330" width="30" height="60" as="geometry"/>
                </mxCell>
                <mxCell id="10" value="Registrarse" style="ellipse;whiteSpace=wrap;html=1;" parent="1" vertex="1">
                    <mxGeometry x="220" y="120" width="140" height="50" as="geometry"/>
                </mxCell>
                <mxCell id="11" value="Iniciar sesión" style="ellipse;whiteSpace=wrap;html=1;" parent="1" vertex="1">
                    <mxGeometry x="360" y="150" width="140" height="50" as="geometry"/>
                </mxCell>
                <mxCell id="12" value="Importar / Exportar Modelos" style="ellipse;whiteSpace=wrap;html=1;" parent="1" vertex="1">
                    <mxGeometry x="220" y="190" width="180" height="50" as="geometry"/>
                </mxCell>
                <mxCell id="13" value="Visualizar datos" style="ellipse;whiteSpace=wrap;html=1;" parent="1" vertex="1">
                    <mxGeometry x="300" y="250" width="120" height="50" as="geometry"/>
                </mxCell>
                <mxCell id="14" value="Gestionar usuarios" style="ellipse;whiteSpace=wrap;html=1;" parent="1" vertex="1">
                    <mxGeometry x="220" y="335" width="160" height="50" as="geometry"/>
                </mxCell>
                <mxCell id="28" value="Visualizar documentación" style="ellipse;whiteSpace=wrap;html=1;" parent="1" vertex="1">
                    <mxGeometry x="130" y="250" width="150" height="50" as="geometry"/>
                </mxCell>
                <mxCell id="20" style="endArrow=none;" parent="1" source="2" target="10" edge="1">
                    <mxGeometry relative="1" as="geometry"/>
                </mxCell>
                <mxCell id="21" style="endArrow=none;" parent="1" source="2" target="11" edge="1">
                    <mxGeometry relative="1" as="geometry"/>
                </mxCell>
                <mxCell id="22" style="endArrow=none;" parent="1" source="2" target="12" edge="1">
                    <mxGeometry relative="1" as="geometry"/>
                </mxCell>
                <mxCell id="23" style="endArrow=none;" parent="1" source="2" target="13" edge="1">
                    <mxGeometry relative="1" as="geometry"/>
                </mxCell>
                <mxCell id="24" style="endArrow=none;" parent="1" source="3" target="14" edge="1">
                    <mxGeometry relative="1" as="geometry"/>
                </mxCell>
                <mxCell id="25" style="endArrow=none;" parent="1" source="3" target="2" edge="1">
                    <mxGeometry relative="1" as="geometry"/>
                </mxCell>
                <mxCell id="49" style="endArrow=none;entryX=0.5;entryY=0;entryDx=0;entryDy=0;" edge="1" parent="1" target="28">
                    <mxGeometry relative="1" as="geometry">
                        <mxPoint x="111" y="199" as="sourcePoint"/>
                        <mxPoint x="223.70000000000005" y="335.5" as="targetPoint"/>
                    </mxGeometry>
                </mxCell>
                <mxCell id="51" value="" style="swimlane;startSize=0;" vertex="1" parent="1">
                    <mxGeometry x="70" y="115" width="440" height="285" as="geometry"/>
                </mxCell>
                <mxCell id="52" value="&lt;b&gt;Web Gestión de Modelos&lt;/b&gt;" style="text;strokeColor=none;align=center;fillColor=none;html=1;verticalAlign=middle;whiteSpace=wrap;rounded=0;" vertex="1" parent="1">
                    <mxGeometry x="210" y="85" width="150" height="30" as="geometry"/>
                </mxCell>
            </root>
        </mxGraphModel>
    </diagram>
</mxfile>